<mxfile host="app.diagrams.net" modified="2024-06-01T00:59:57.440Z" agent="Mozilla/5.0 (Macintosh; Intel Mac OS X 10_15_7) AppleWebKit/605.1.15 (KHTML, like Gecko) Version/17.3 Safari/605.1.15" version="24.4.10" etag="iCsldjl9XR9Hn0IZ7OzB" type="github">
  <diagram name="Page-1" id="A_mVtjiGl9Ym9xoJ8OXF">
    <mxGraphModel>
      <root>
        <mxCell id="0" />
        <mxCell id="1" parent="0" />
      </root>
    </mxGraphModel>
  </diagram>
</mxfile>
